<mxfile host="app.diagrams.net" modified="2020-11-15T12:40:52.007Z" agent="5.0 (Windows NT 10.0; Win64; x64) AppleWebKit/537.36 (KHTML, like Gecko) Chrome/86.0.4240.193 Safari/537.36" etag="JPnx4inV5584rZhPdsI8" version="13.9.8" type="github">
  <diagram id="h9rl1ICq7g9oeOXeuk0b" name="Page-1">
    <mxGraphModel dx="1038" dy="548" grid="1" gridSize="10" guides="1" tooltips="1" connect="1" arrows="1" fold="1" page="1" pageScale="1" pageWidth="850" pageHeight="500" math="0" shadow="0">
      <root>
        <mxCell id="0" />
        <mxCell id="1" parent="0" />
        <mxCell id="wVv-axRnDbigPAk049f5-2" value="" style="shape=mxgraph.cisco.computers_and_peripherals.ibm_mini_as400;html=1;pointerEvents=1;dashed=0;fillColor=#036897;strokeColor=#ffffff;strokeWidth=2;verticalLabelPosition=bottom;verticalAlign=top;align=center;outlineConnect=0;" vertex="1" parent="1">
          <mxGeometry x="392" y="238" width="43" height="62" as="geometry" />
        </mxCell>
        <mxCell id="wVv-axRnDbigPAk049f5-3" value="" style="shape=mxgraph.cisco.computers_and_peripherals.terminal;html=1;pointerEvents=1;dashed=0;fillColor=#036897;strokeColor=#ffffff;strokeWidth=2;verticalLabelPosition=bottom;verticalAlign=top;align=center;outlineConnect=0;" vertex="1" parent="1">
          <mxGeometry x="400" y="90" width="61" height="54" as="geometry" />
        </mxCell>
        <mxCell id="wVv-axRnDbigPAk049f5-5" value="" style="shape=mxgraph.cisco.computers_and_peripherals.macintosh;html=1;pointerEvents=1;dashed=0;fillColor=#036897;strokeColor=#ffffff;strokeWidth=2;verticalLabelPosition=bottom;verticalAlign=top;align=center;outlineConnect=0;" vertex="1" parent="1">
          <mxGeometry x="110" y="180" width="99" height="64" as="geometry" />
        </mxCell>
        <mxCell id="wVv-axRnDbigPAk049f5-6" value="" style="shape=mxgraph.cisco.servers.standard_host;html=1;pointerEvents=1;dashed=0;fillColor=#036897;strokeColor=#ffffff;strokeWidth=2;verticalLabelPosition=bottom;verticalAlign=top;align=center;outlineConnect=0;" vertex="1" parent="1">
          <mxGeometry x="350" y="238" width="43" height="62" as="geometry" />
        </mxCell>
        <mxCell id="wVv-axRnDbigPAk049f5-7" value="" style="shape=mxgraph.cisco.computers_and_peripherals.macintosh;html=1;pointerEvents=1;dashed=0;fillColor=#036897;strokeColor=#ffffff;strokeWidth=2;verticalLabelPosition=bottom;verticalAlign=top;align=center;outlineConnect=0;" vertex="1" parent="1">
          <mxGeometry x="120" y="300" width="99" height="64" as="geometry" />
        </mxCell>
        <mxCell id="wVv-axRnDbigPAk049f5-8" value="" style="shape=mxgraph.cisco.computers_and_peripherals.macintosh;html=1;pointerEvents=1;dashed=0;fillColor=#036897;strokeColor=#ffffff;strokeWidth=2;verticalLabelPosition=bottom;verticalAlign=top;align=center;outlineConnect=0;" vertex="1" parent="1">
          <mxGeometry x="310" y="380" width="99" height="64" as="geometry" />
        </mxCell>
        <mxCell id="wVv-axRnDbigPAk049f5-9" value="" style="shape=mxgraph.cisco.computers_and_peripherals.terminal;html=1;pointerEvents=1;dashed=0;fillColor=#036897;strokeColor=#ffffff;strokeWidth=2;verticalLabelPosition=bottom;verticalAlign=top;align=center;outlineConnect=0;" vertex="1" parent="1">
          <mxGeometry x="550" y="185" width="61" height="54" as="geometry" />
        </mxCell>
        <mxCell id="wVv-axRnDbigPAk049f5-10" value="" style="shape=mxgraph.cisco.computers_and_peripherals.terminal;html=1;pointerEvents=1;dashed=0;fillColor=#036897;strokeColor=#ffffff;strokeWidth=2;verticalLabelPosition=bottom;verticalAlign=top;align=center;outlineConnect=0;" vertex="1" parent="1">
          <mxGeometry x="550" y="350" width="61" height="54" as="geometry" />
        </mxCell>
        <mxCell id="wVv-axRnDbigPAk049f5-11" value="" style="shape=mxgraph.cisco.computers_and_peripherals.terminal;html=1;pointerEvents=1;dashed=0;fillColor=#036897;strokeColor=#ffffff;strokeWidth=2;verticalLabelPosition=bottom;verticalAlign=top;align=center;outlineConnect=0;" vertex="1" parent="1">
          <mxGeometry x="240" y="80" width="61" height="54" as="geometry" />
        </mxCell>
        <mxCell id="wVv-axRnDbigPAk049f5-19" value="" style="endArrow=classic;startArrow=classic;html=1;exitX=0.17;exitY=0.07;exitDx=0;exitDy=0;exitPerimeter=0;entryX=0.91;entryY=0.92;entryDx=0;entryDy=0;entryPerimeter=0;" edge="1" parent="1" source="wVv-axRnDbigPAk049f5-6" target="wVv-axRnDbigPAk049f5-11">
          <mxGeometry width="50" height="50" relative="1" as="geometry">
            <mxPoint x="330" y="164" as="sourcePoint" />
            <mxPoint x="300" y="150" as="targetPoint" />
          </mxGeometry>
        </mxCell>
        <mxCell id="wVv-axRnDbigPAk049f5-20" value="" style="endArrow=classic;startArrow=classic;html=1;entryX=0.5;entryY=1;entryDx=0;entryDy=0;entryPerimeter=0;exitX=0.5;exitY=0;exitDx=0;exitDy=0;exitPerimeter=0;" edge="1" parent="1" source="wVv-axRnDbigPAk049f5-2" target="wVv-axRnDbigPAk049f5-3">
          <mxGeometry width="50" height="50" relative="1" as="geometry">
            <mxPoint x="400" y="210" as="sourcePoint" />
            <mxPoint x="450" y="160" as="targetPoint" />
          </mxGeometry>
        </mxCell>
        <mxCell id="wVv-axRnDbigPAk049f5-21" value="" style="endArrow=classic;startArrow=classic;html=1;exitX=1;exitY=0.5;exitDx=0;exitDy=0;exitPerimeter=0;" edge="1" parent="1" source="wVv-axRnDbigPAk049f5-2" target="wVv-axRnDbigPAk049f5-9">
          <mxGeometry width="50" height="50" relative="1" as="geometry">
            <mxPoint x="480" y="288" as="sourcePoint" />
            <mxPoint x="530" y="238" as="targetPoint" />
          </mxGeometry>
        </mxCell>
        <mxCell id="wVv-axRnDbigPAk049f5-22" value="" style="endArrow=classic;startArrow=classic;html=1;entryX=0.15;entryY=0.13;entryDx=0;entryDy=0;entryPerimeter=0;exitX=0.9;exitY=0.9;exitDx=0;exitDy=0;exitPerimeter=0;" edge="1" parent="1" source="wVv-axRnDbigPAk049f5-2" target="wVv-axRnDbigPAk049f5-10">
          <mxGeometry width="50" height="50" relative="1" as="geometry">
            <mxPoint x="450" y="370" as="sourcePoint" />
            <mxPoint x="500" y="320" as="targetPoint" />
          </mxGeometry>
        </mxCell>
        <mxCell id="wVv-axRnDbigPAk049f5-23" value="" style="endArrow=classic;startArrow=classic;html=1;entryX=0.5;entryY=0.01;entryDx=0;entryDy=0;entryPerimeter=0;exitX=0.5;exitY=1;exitDx=0;exitDy=0;exitPerimeter=0;" edge="1" parent="1" source="wVv-axRnDbigPAk049f5-6" target="wVv-axRnDbigPAk049f5-8">
          <mxGeometry width="50" height="50" relative="1" as="geometry">
            <mxPoint x="340.00000000000006" y="319.99999999999994" as="sourcePoint" />
            <mxPoint x="468.4500000000001" y="383.21999999999997" as="targetPoint" />
          </mxGeometry>
        </mxCell>
        <mxCell id="wVv-axRnDbigPAk049f5-24" value="" style="endArrow=classic;startArrow=classic;html=1;exitX=0;exitY=1;exitDx=0;exitDy=0;exitPerimeter=0;" edge="1" parent="1" source="wVv-axRnDbigPAk049f5-6" target="wVv-axRnDbigPAk049f5-7">
          <mxGeometry width="50" height="50" relative="1" as="geometry">
            <mxPoint x="270" y="290" as="sourcePoint" />
            <mxPoint x="270" y="350" as="targetPoint" />
          </mxGeometry>
        </mxCell>
        <mxCell id="wVv-axRnDbigPAk049f5-25" value="" style="endArrow=classic;startArrow=classic;html=1;exitX=0;exitY=0.5;exitDx=0;exitDy=0;exitPerimeter=0;" edge="1" parent="1" source="wVv-axRnDbigPAk049f5-6" target="wVv-axRnDbigPAk049f5-5">
          <mxGeometry width="50" height="50" relative="1" as="geometry">
            <mxPoint x="336" y="214.78" as="sourcePoint" />
            <mxPoint x="205" y="238.00437673130196" as="targetPoint" />
          </mxGeometry>
        </mxCell>
      </root>
    </mxGraphModel>
  </diagram>
</mxfile>
